<svg xmlns="http://www.w3.org/2000/svg" width="28" height="20" viewBox="0 0 28 20">
    <path fill="#E53838" fillRule="evenodd" d="M21.666 7.125a1.18 1.18 0 0 1 .866-.375c.33 0 .618.125.866.375.247.25.371.542.371.875 0 .334-.124.625-.371.875-.248.25-.537.375-.866.375a1.18 1.18 0 0 1-.866-.375A1.204 1.204 0 0 1 21.295 8c0-.333.123-.625.37-.875m-2.721 2.75a1.18 1.18 0 0 1 .866-.375c.33 0 .618.125.866.375.247.25.371.542.371.875 0 .334-.124.625-.371.875-.248.25-.537.375-.866.375a1.18 1.18 0 0 1-.866-.375 1.204 1.204 0 0 1-.371-.875c0-.333.123-.625.37-.875m0-5.5A1.18 1.18 0 0 1 19.81 4c.33 0 .618.125.866.375.247.25.371.542.371.875 0 .334-.124.625-.371.875-.248.25-.537.375-.866.375a1.18 1.18 0 0 1-.866-.375 1.204 1.204 0 0 1-.371-.875c0-.333.123-.625.37-.875m-2.721 2.75a1.18 1.18 0 0 1 .866-.375c.33 0 .619.125.866.375s.371.542.371.875c0 .334-.124.625-.371.875s-.536.375-.866.375a1.18 1.18 0 0 1-.866-.375A1.205 1.205 0 0 1 15.85 8c0-.333.123-.625.37-.875M5.212 8c0 .792.39 1.187 1.174 1.187.784 0 1.176-.395 1.176-1.187 0-.791-.392-1.187-1.176-1.187-.783 0-1.175.396-1.175 1.187m-.526-1.781a2.31 2.31 0 0 1 1.701-.72c.66 0 1.227.241 1.702.72.473.48.711 1.073.711 1.78 0 .71-.238 1.304-.711 1.782a2.31 2.31 0 0 1-1.702.72c-.66 0-1.227-.24-1.7-.72C4.21 9.303 3.972 8.71 3.972 8c0-.708.237-1.302.711-1.781m21.312 12.718c.248-.124.453-.489.619-1.093.164-.604.206-1.625.123-3.063-.083-1.437-.35-3.094-.804-4.969-.66-2.79-1.36-4.843-2.103-6.156-.743-1.312-1.65-2.134-2.722-2.469a5.41 5.41 0 0 0-1.3-.187c-.494 0-1.113.104-1.855.312-1.65.417-3.011.625-4.083.625-1.073 0-2.434-.208-4.083-.625C9.046 1.104 8.428 1 7.932 1a5.41 5.41 0 0 0-1.299.187c-1.073.335-1.98 1.157-2.722 2.47-.742 1.312-1.444 3.364-2.103 6.155-.455 1.875-.722 3.532-.804 4.97-.084 1.437-.042 2.458.123 3.062.165.604.371.969.619 1.093.082.042.206.063.371.063.412 0 .886-.25 1.423-.75.659-.583 1.32-1.291 1.98-2.125C6.425 14.96 7.333 14.25 8.24 14c.701-.208 2.33-.313 4.888-.313h1.484c2.557 0 4.186.105 4.887.313.907.25 1.815.959 2.723 2.125.659.834 1.319 1.542 1.98 2.125.535.5 1.01.75 1.422.75.164 0 .288-.02.371-.063m.866-9.374c.66 2.75.949 5.052.866 6.906-.083 1.854-.516 2.969-1.299 3.343a1.76 1.76 0 0 1-.804.188c-1.031 0-2.434-1.083-4.207-3.25-.784-1-1.506-1.594-2.165-1.781-.66-.188-2.207-.281-4.64-.281H13.13c-2.434 0-3.98.093-4.64.28-.66.188-1.382.782-2.165 1.782C4.55 18.917 3.147 20 2.117 20c-.289 0-.557-.062-.804-.188-.784-.374-1.217-1.489-1.3-3.343-.082-1.854.207-4.157.867-6.906C1.58 6.646 2.334 4.459 3.138 3 3.942 1.542 5.003.625 6.324.25A5.41 5.41 0 0 1 7.932 0c.453 0 1.278.156 2.475.469 1.195.312 2.35.469 3.464.469 1.113 0 2.268-.157 3.464-.47C18.531.157 19.355 0 19.81 0a5.42 5.42 0 0 1 1.608.25C22.738.625 23.8 1.542 24.604 3c.804 1.459 1.556 3.646 2.258 6.563"/>
</svg>
