<svg xmlns="http://www.w3.org/2000/svg" width="20" height="20" viewBox="0 0 20 20">
    <g fill="#0079FF" fillRule="evenodd">
        <path d="M11.63 17.254c-.81 0-1.59-.196-2.289-.565H4.502a.812.812 0 0 1-.805-.817v-2.523c0-.45.362-.816.805-.816H6.69a5.146 5.146 0 0 1 .11-1.407H2.275V9.75h4.475a.698.698 0 0 0 .693-.703.698.698 0 0 0-.693-.704H2.274V6.97H12.64c.36 0 .665.24.768.571.515.2.996.489 1.424.858v-.613c0-.288-.055-.563-.154-.816h1.772a.698.698 0 0 0 .693-.704.698.698 0 0 0-.693-.703h-.194V1.407h.194a.698.698 0 0 0 .693-.704A.698.698 0 0 0 16.45 0H4.502C3.294 0 2.311.997 2.311 2.223v2.523c0 .288.055.564.154.817H.693A.698.698 0 0 0 0 6.266c0 .389.31.703.693.703h.194v4.157H.693a.698.698 0 0 0-.693.703c0 .388.31.703.693.703h1.772a2.239 2.239 0 0 0-.154.817v2.523c0 1.226.983 2.223 2.191 2.223h9.912l-1.117-1.132a4.872 4.872 0 0 1-1.666.291zM3.698 2.224c0-.451.362-.817.805-.817H14.87V2.78h-4.475a.698.698 0 0 0-.693.704c0 .388.31.703.693.703h4.475v1.375H4.502a.812.812 0 0 1-.805-.817V2.223z"/>
        <path d="M19.652 17.967l-3.625-3.624a4.507 4.507 0 0 0-.728-5.408 4.505 4.505 0 0 0-6.364 0 4.505 4.505 0 0 0 0 6.364 4.508 4.508 0 0 0 5.408.729l3.624 3.624c.465.464 1.22.464 1.685 0a1.193 1.193 0 0 0 0-1.685zM14.5 14.501a3.338 3.338 0 0 1-4.716 0 3.338 3.338 0 0 1 0-4.716c1.3-1.3 3.416-1.3 4.716 0 1.3 1.3 1.3 3.416 0 4.716z"/>
    </g>
</svg>
