<svg xmlns="http://www.w3.org/2000/svg" width="20" height="20" viewBox="0 0 20 20">
    <path fill="#50F" fillRule="evenodd" d="M19.392 13.801l-.913-.182a3.826 3.826 0 0 0-.2-.484l.516-.774c.2-.3.16-.7-.094-.954l-.423-.424a.758.758 0 0 0-.954-.094l-.775.516a3.82 3.82 0 0 0-.484-.2l-.182-.913a.758.758 0 0 0-.741-.608h-.6c-.358 0-.67.256-.74.608l-.183.913a3.81 3.81 0 0 0-.484.2l-.774-.516a.758.758 0 0 0-.954.094l-.424.424a.758.758 0 0 0-.094.954l.516.774c-.106.215-.193.44-.258.671a.316.316 0 0 0 .609.17c.068-.245.167-.482.292-.704a.316.316 0 0 0-.013-.33l-.62-.932a.125.125 0 0 1 .015-.157l.423-.423a.125.125 0 0 1 .157-.016l.932.621c.099.066.226.07.33.013.222-.125.459-.224.705-.292a.316.316 0 0 0 .224-.243l.22-1.097a.125.125 0 0 1 .122-.1h.599c.059 0 .11.042.122.1l.219 1.097c.023.117.11.21.225.243.245.068.482.167.704.292a.316.316 0 0 0 .33-.013l.932-.62a.125.125 0 0 1 .157.015l.423.423a.125.125 0 0 1 .016.157l-.621.932a.316.316 0 0 0-.012.33c.125.222.223.459.292.705a.316.316 0 0 0 .242.224l1.097.22c.058.011.1.063.1.122v.599c0 .059-.042.11-.1.122l-1.097.219a.316.316 0 0 0-.242.225 3.187 3.187 0 0 1-.292.704.316.316 0 0 0 .012.33l.62.932a.125.125 0 0 1-.015.157l-.423.423a.125.125 0 0 1-.157.016l-.931-.621a.316.316 0 0 0-.33-.012 3.187 3.187 0 0 1-.705.292.316.316 0 0 0-.225.242l-.22 1.097a.125.125 0 0 1-.121.1h-.6a.125.125 0 0 1-.121-.1l-.22-1.097a.316.316 0 0 0-.224-.242 3.186 3.186 0 0 1-.705-.292.316.316 0 0 0-.33.012l-.932.62a.125.125 0 0 1-.157-.015l-.423-.423a.125.125 0 0 1-.016-.157l.621-.931a.316.316 0 0 0 .013-.33 3.187 3.187 0 0 1-.292-.705.316.316 0 0 0-.243-.225l-1.097-.22a.125.125 0 0 1-.1-.121v-.6c0-.058.042-.11.1-.121l.067-.014a.316.316 0 1 0-.124-.62l-.067.014a.758.758 0 0 0-.608.742v.599c0 .359.256.67.608.74l.913.183c.056.166.123.328.2.484l-.516.775c-.2.299-.16.7.094.954l.424.423a.758.758 0 0 0 .954.095l.774-.517c.157.078.318.144.484.2l.182.913c.07.352.383.608.742.608h.599c.359 0 .67-.256.74-.608l.183-.913c.166-.056.328-.123.484-.2l.775.516c.299.2.7.16.954-.094l.423-.423a.758.758 0 0 0 .095-.954l-.517-.775a3.82 3.82 0 0 0 .2-.484l.913-.182a.758.758 0 0 0 .608-.741v-.6c0-.358-.256-.67-.608-.74zM7.684 8.977a1.294 1.294 0 0 0 0-2.585c-.712 0-1.292.58-1.292 1.292 0 .713.58 1.293 1.292 1.293zm0 .631A1.926 1.926 0 0 1 5.76 7.684c0-1.06.863-1.924 1.924-1.924s1.924.863 1.924 1.924-.863 1.924-1.924 1.924zm7.158 4.097c.627 0 1.137.51 1.137 1.137a.316.316 0 0 0 .632 0 1.77 1.77 0 0 0-1.769-1.768 1.77 1.77 0 0 0-1.768 1.768 1.77 1.77 0 0 0 2.849 1.4.316.316 0 0 0-.387-.5 1.138 1.138 0 0 1-1.831-.9c0-.627.51-1.137 1.137-1.137zm-4.577-1.314a.316.316 0 0 0-.42-.15 5.028 5.028 0 0 1-.8.299.316.316 0 0 0-.224.242l-.334 1.67a.355.355 0 0 1-.347.285h-.911a.355.355 0 0 1-.348-.285l-.334-1.67a.316.316 0 0 0-.224-.242 5.02 5.02 0 0 1-1.11-.46.316.316 0 0 0-.33.013l-1.417.944a.355.355 0 0 1-.447-.044l-.644-.644a.355.355 0 0 1-.044-.447l.945-1.417a.316.316 0 0 0 .012-.33 5.016 5.016 0 0 1-.46-1.11.316.316 0 0 0-.242-.224l-1.67-.334a.355.355 0 0 1-.285-.347v-.912c0-.168.12-.314.285-.347l1.67-.334a.316.316 0 0 0 .243-.224c.108-.387.262-.76.459-1.11a.316.316 0 0 0-.012-.33L2.33 3.466a.355.355 0 0 1 .044-.447l.644-.644a.355.355 0 0 1 .447-.044l1.418.945c.099.066.226.07.33.012.35-.197.722-.351 1.109-.46a.316.316 0 0 0 .224-.242l.334-1.67A.355.355 0 0 1 7.23.631h.91c.17 0 .315.12.348.285l.334 1.67c.023.117.11.21.225.243.386.108.76.262 1.109.46a.316.316 0 0 0 .33-.013l1.417-.945a.355.355 0 0 1 .447.044l.644.644a.355.355 0 0 1 .045.447l-.945 1.418a.316.316 0 0 0-.013.33c.197.349.352.722.46 1.109a.316.316 0 0 0 .242.224l1.67.334a.355.355 0 0 1 .285.348v.91c0 .17-.12.315-.285.348l-1.67.334a.316.316 0 0 0-.242.225c-.079.28-.182.555-.308.817a.316.316 0 0 0 .57.274c.113-.237.21-.483.29-.734l1.484-.297a.988.988 0 0 0 .792-.966v-.911a.988.988 0 0 0-.792-.967l-1.484-.297a5.656 5.656 0 0 0-.368-.89l.84-1.259a.988.988 0 0 0-.124-1.243l-.644-.645a.988.988 0 0 0-1.244-.123l-1.26.84a5.65 5.65 0 0 0-.889-.369L9.106.792A.988.988 0 0 0 8.14 0h-.911a.988.988 0 0 0-.967.792l-.297 1.484c-.306.098-.604.221-.89.369l-1.258-.84a.988.988 0 0 0-1.244.123l-.645.645a.988.988 0 0 0-.123 1.244l.84 1.259a5.651 5.651 0 0 0-.369.89l-1.484.296A.988.988 0 0 0 0 7.23v.91c0 .47.333.876.792.967l1.484.297c.098.307.221.604.369.89l-.84 1.259a.988.988 0 0 0 .123 1.244l.645.644a.988.988 0 0 0 1.244.123l1.259-.84c.285.148.583.272.89.37l.296 1.483a.988.988 0 0 0 .967.792h.91a.988.988 0 0 0 .967-.792l.297-1.484c.244-.077.482-.171.712-.28a.316.316 0 0 0 .15-.421zm.154-2.952a.314.314 0 0 0 .426-.137 3.554 3.554 0 0 0-3.16-5.168 3.53 3.53 0 0 0-2.479 1.008.316.316 0 1 0 .441.453 2.902 2.902 0 0 1 2.037-.829 2.921 2.921 0 0 1 2.599 4.248.316.316 0 0 0 .136.425zM4.924 6.734a2.921 2.921 0 0 0 4.47 3.315.316.316 0 1 1 .37.512 3.524 3.524 0 0 1-2.08.673 3.554 3.554 0 0 1-3.357-4.705.316.316 0 1 1 .597.205z"/>
</svg>
